<?xml version="1.0" encoding="UTF-8" standalone="no"?>
<!DOCTYPE svg PUBLIC "-//W3C//DTD SVG 1.1//EN" "http://www.w3.org/Graphics/SVG/1.1/DTD/svg11.dtd">
<!-- Microsoft Visio, SVG Export에서 생성되었습니다. figure_002.svg 페이지-1 -->
<svg xmlns="http://www.w3.org/2000/svg" xmlns:xlink="http://www.w3.org/1999/xlink" xmlns:ev="http://www.w3.org/2001/xml-events"
		xmlns:v="http://schemas.microsoft.com/visio/2003/SVGExtensions/" width="6.42672in" height="3.25328in"
		viewBox="0 0 462.724 234.236" xml:space="preserve" color-interpolation-filters="sRGB" class="st15">
	<title>400-003</title>
	<v:documentProperties v:langID="1033" v:metric="true" v:viewMarkup="false">
		<v:userDefs>
			<v:ud v:nameU="msvConvertTheme"/>
		</v:userDefs>
	</v:documentProperties>

	<style type="text/css">
	<![CDATA[
		.st1 {fill:#ffffff;stroke:#000000;stroke-linecap:round;stroke-linejoin:round;stroke-width:0.24}
		.st2 {stroke:#000000;stroke-linecap:round;stroke-linejoin:round;stroke-width:0.24}
		.st3 {fill:#000000;font-family:Arial;font-size:0.499992em}
		.st4 {fill:#000000;font-family:Arial;font-size:0.666664em;font-style:italic}
		.st5 {baseline-shift:-32.4939%;font-size:0.649878em;font-style:normal}
		.st6 {font-size:1em;font-style:normal}
		.st7 {marker-start:url(#mrkr10-84);stroke:#000000;stroke-linecap:round;stroke-linejoin:round;stroke-width:0.24}
		.st8 {fill:#000000;fill-opacity:1;stroke:#000000;stroke-opacity:1;stroke-width:0.11764705882353}
		.st9 {fill:#ffffff}
		.st10 {fill:#ffffff;stroke:#000000;stroke-linecap:round;stroke-linejoin:round;stroke-width:0.24;visibility:hidden}
		.st11 {marker-end:url(#mrkr10-133);stroke:#000000;stroke-linecap:round;stroke-linejoin:round;stroke-width:0.24}
		.st12 {fill:none}
		.st13 {stroke:#000000;stroke-linecap:round;stroke-linejoin:round;stroke-width:0.72}
		.st14 {fill:#000000;font-family:Arial;font-size:0.666664em}
		.st15 {fill:none;fill-rule:evenodd;font-size:12px;overflow:visible;stroke-linecap:square;stroke-miterlimit:3}
	]]>
	</style>

	<defs id="Markers">
		<g id="lend10">
			<path
					d="M 0 0.75 C -0.414214 0.75 -0.75 0.414214 -0.75 0 -0.75 -0.414214 -0.414214 -0.75 0 -0.75 0.414214 -0.75 0.75 -0.414214 0.75 0 0.75 0.414214 0.414214 0.75 0 0.75 Z "
					style="stroke:none"/>
		</g>
		<marker id="mrkr10-84" class="st8" v:arrowType="10" v:arrowSize="1" v:setback="4.875" refX="4.875" orient="auto"
				markerUnits="strokeWidth" overflow="visible">
			<use xlink:href="#lend10" transform="scale(8.5) "/>
		</marker>
		<marker id="mrkr10-133" class="st8" v:arrowType="10" v:arrowSize="1" v:setback="6.375" refX="-6.375" orient="auto"
				markerUnits="strokeWidth" overflow="visible">
			<use xlink:href="#lend10" transform="scale(-8.5,-8.5) "/>
		</marker>
	</defs>
	<g v:mID="0" v:index="1" v:groupContext="foregroundPage">
		<title>페이지-1</title>
		<v:pageProperties v:drawingScale="1" v:pageScale="1" v:drawingUnits="19" v:shadowOffsetX="9" v:shadowOffsetY="-9"
				v:shadowType="1"/>
		<v:layer v:name="Electrical" v:index="0"/>
		<v:layer v:name="Connector" v:index="1"/>
		<g id="group1-1" transform="translate(422.104,-198.124)" v:mID="1" v:groupContext="group" v:layerMember="0">
			<v:userDefs>
				<v:ud v:nameU="visDescription" v:val="VT4(Represents an operational amplifier.)"/>
				<v:ud v:nameU="visVersion" v:val="VT0(12):26"/>
			</v:userDefs>
			<title>Operational amplifier 2</title>
			<desc>Amplifier</desc>
			<g id="shape2-2" v:mID="2" v:groupContext="shape" v:layerMember="0">
				<title>시트.2</title>
				<path d="M0 198.24 L0 234.24 L31.5 216.24 L0 198.24 Z" class="st1"/>
			</g>
			<g id="shape3-4" v:mID="3" v:groupContext="shape" v:layerMember="0">
				<title>시트.3</title>
				<path d="M-4.5 207.24 L0 207.24" class="st2"/>
				<path d="M-4.5 225.24 L0 225.24" class="st2"/>
				<path d="M18 198.24 L18 208.37" class="st2"/>
				<path d="M40.5 216.24 L31.5 216.24" class="st2"/>
				<path d="M18 234.24 L18 224.11" class="st2"/>
			</g>
			<g id="shape1-11" v:mID="1" v:groupContext="groupContent" v:layerMember="0">
				<v:textBlock v:margins="rect(1,1,1,1)"/>
				<v:textRect cx="15.75" cy="238.838" width="27.01" height="9.20349"/>
				<text x="4.08" y="240.64" class="st3" v:langID="1033"><v:paragraph v:horizAlign="1"/><v:tabList/>Amplifier</text>			</g>
		</g>
		<g id="group4-13" transform="translate(422.104,-144.124)" v:mID="4" v:groupContext="group" v:layerMember="0">
			<v:userDefs>
				<v:ud v:nameU="visDescription" v:val="VT4(Represents an operational amplifier.)"/>
				<v:ud v:nameU="visVersion" v:val="VT0(12):26"/>
			</v:userDefs>
			<title>Operational amplifier 2.4</title>
			<desc>Detector</desc>
			<g id="shape5-14" v:mID="5" v:groupContext="shape" v:layerMember="0">
				<title>시트.5</title>
				<path d="M0 198.24 L0 234.24 L31.5 216.24 L0 198.24 Z" class="st1"/>
			</g>
			<g id="shape6-16" v:mID="6" v:groupContext="shape" v:layerMember="0">
				<title>시트.6</title>
				<path d="M-4.5 207.24 L0 207.24" class="st2"/>
				<path d="M-4.5 225.24 L0 225.24" class="st2"/>
				<path d="M18 198.24 L18 208.37" class="st2"/>
				<path d="M40.5 216.24 L31.5 216.24" class="st2"/>
				<path d="M18 234.24 L18 224.11" class="st2"/>
			</g>
			<g id="shape4-23" v:mID="4" v:groupContext="groupContent" v:layerMember="0">
				<v:textBlock v:margins="rect(1,1,1,1)"/>
				<v:textRect cx="15.75" cy="238.838" width="26.35" height="9.20349"/>
				<text x="4.41" y="240.64" class="st3" v:langID="1033"><v:paragraph v:horizAlign="1"/><v:tabList/>Detector</text>			</g>
		</g>
		<g id="group7-25" transform="translate(562.74,108.116) rotate(90)" v:mID="7" v:groupContext="group" v:layerMember="0">
			<v:custProps>
				<v:cp v:nameU="Label" v:lbl="Label" v:type="0" v:format="@" v:sortKey="" v:invis="false" v:ask="false"
						v:langID="1033" v:val="VT4()"/>
				<v:cp v:nameU="Slider_Position" v:lbl="Slider position (0-1)" v:type="2" v:langID="1033" v:val="VT0(0.5):26"/>
			</v:custProps>
			<v:userDefs>
				<v:ud v:nameU="Form" v:val="VT0(1):5"/>
				<v:ud v:nameU="SubType" v:val="VT0(0):26"/>
				<v:ud v:nameU="visDescription" v:val="VT4(Represents a fixed or variable resistor.)"/>
				<v:ud v:nameU="visVersion" v:val="VT0(12):26"/>
				<v:ud v:nameU="Form" v:prompt="" v:val="VT0(0):5"/>
			</v:userDefs>
			<title>Resistor</title>
			<desc>RDIFF_RX/2</desc>
			<g id="shape8-26" v:mID="8" v:groupContext="shape" v:layerMember="0">
				<title>시트.8</title>
				<v:userDefs>
					<v:ud v:nameU="SubType" v:val="VT0(0):26"/>
					<v:ud v:nameU="Form" v:val="VT0(1):5"/>
					<v:ud v:nameU="Form" v:prompt="" v:val="VT0(0):5"/>
				</v:userDefs>
				<path d="M0 234.24 L18 234.24 L18 227.04 L0 227.04 L0 234.24 Z" class="st1"/>
			</g>
			<g id="shape9-28" v:mID="9" v:groupContext="shape" v:layerMember="0"
					transform="translate(-163.885,73.0247) rotate(-45)">
				<title>시트.9</title>
				<v:userDefs>
					<v:ud v:nameU="SubType" v:val="VT0(0):26"/>
				</v:userDefs>
			</g>
			<g id="shape7-30" v:mID="7" v:groupContext="groupContent" v:layerMember="0">
				<v:textBlock v:margins="rect(1,1,1,1)"/>
				<v:textRect cx="9" cy="253.406" width="38.34" height="11.627" transform="rotate(-90)"/>
				<text x="-270.46" y="11.41" transform="rotate(-90)" class="st4" v:langID="1033"><v:paragraph v:horizAlign="1"/><v:tabList/>R<tspan
							dy="-0.287em" class="st5" v:baseFontSize="8">DIFF_RX</tspan><tspan dy="0.186em" class="st6">/2</tspan></text>			</g>
		</g>
		<g id="group10-34" transform="translate(580.74,108.116) rotate(90)" v:mID="10" v:groupContext="group" v:layerMember="0">
			<v:custProps>
				<v:cp v:nameU="Label" v:lbl="Label" v:type="0" v:format="@" v:sortKey="" v:invis="false" v:ask="false"
						v:langID="1033" v:val="VT4()"/>
				<v:cp v:nameU="Slider_Position" v:lbl="Slider position (0-1)" v:type="2" v:langID="1033" v:val="VT0(0.5):26"/>
			</v:custProps>
			<v:userDefs>
				<v:ud v:nameU="Form" v:val="VT0(1):5"/>
				<v:ud v:nameU="SubType" v:val="VT0(0):26"/>
				<v:ud v:nameU="visDescription" v:val="VT4(Represents a fixed or variable resistor.)"/>
				<v:ud v:nameU="visVersion" v:val="VT0(12):26"/>
				<v:ud v:nameU="Form" v:prompt="" v:val="VT0(0):5"/>
			</v:userDefs>
			<title>Resistor.10</title>
			<desc>RDIFF_RX/2</desc>
			<g id="shape11-35" v:mID="11" v:groupContext="shape" v:layerMember="0">
				<title>시트.11</title>
				<v:userDefs>
					<v:ud v:nameU="SubType" v:val="VT0(0):26"/>
					<v:ud v:nameU="Form" v:val="VT0(1):5"/>
					<v:ud v:nameU="Form" v:prompt="" v:val="VT0(0):5"/>
				</v:userDefs>
				<path d="M0 234.24 L18 234.24 L18 227.04 L0 227.04 L0 234.24 Z" class="st1"/>
			</g>
			<g id="shape12-37" v:mID="12" v:groupContext="shape" v:layerMember="0"
					transform="translate(-163.885,73.0247) rotate(-45)">
				<title>시트.12</title>
				<v:userDefs>
					<v:ud v:nameU="SubType" v:val="VT0(0):26"/>
				</v:userDefs>
			</g>
			<g id="shape10-39" v:mID="10" v:groupContext="groupContent" v:layerMember="0">
				<v:textBlock v:margins="rect(1,1,1,1)"/>
				<v:textRect cx="9.00206" cy="208.136" width="38.34" height="11.627" transform="rotate(-90)"/>
				<text x="-225.19" y="11.41" transform="rotate(-90)" class="st4" v:langID="1033"><v:paragraph v:horizAlign="1"/><v:tabList/>R<tspan
							dy="-0.287em" class="st5" v:baseFontSize="8">DIFF_RX</tspan><tspan dy="0.186em" class="st6">/2</tspan></text>			</g>
		</g>
		<g id="group13-43" transform="translate(517.74,108.116) rotate(90)" v:mID="13" v:groupContext="group" v:layerMember="0">
			<v:custProps>
				<v:cp v:nameU="Label" v:lbl="Label" v:type="0" v:format="@" v:sortKey="" v:invis="false" v:ask="false"
						v:langID="1033" v:val="VT4()"/>
				<v:cp v:nameU="Slider_Position" v:lbl="Slider position (0-1)" v:type="2" v:langID="1033" v:val="VT0(0.5):26"/>
			</v:custProps>
			<v:userDefs>
				<v:ud v:nameU="Form" v:val="VT0(1):5"/>
				<v:ud v:nameU="SubType" v:val="VT0(0):26"/>
				<v:ud v:nameU="visDescription" v:val="VT4(Represents a fixed or variable resistor.)"/>
				<v:ud v:nameU="visVersion" v:val="VT0(12):26"/>
				<v:ud v:nameU="Form" v:prompt="" v:val="VT0(0):5"/>
			</v:userDefs>
			<title>Resistor.13</title>
			<desc>RHOLD</desc>
			<g id="shape14-44" v:mID="14" v:groupContext="shape" v:layerMember="0">
				<title>시트.14</title>
				<v:userDefs>
					<v:ud v:nameU="SubType" v:val="VT0(0):26"/>
					<v:ud v:nameU="Form" v:val="VT0(1):5"/>
					<v:ud v:nameU="Form" v:prompt="" v:val="VT0(0):5"/>
				</v:userDefs>
				<path d="M0 234.24 L18 234.24 L18 227.04 L0 227.04 L0 234.24 Z" class="st1"/>
			</g>
			<g id="shape15-46" v:mID="15" v:groupContext="shape" v:layerMember="0"
					transform="translate(-163.885,73.0247) rotate(-45)">
				<title>시트.15</title>
				<v:userDefs>
					<v:ud v:nameU="SubType" v:val="VT0(0):26"/>
				</v:userDefs>
			</g>
			<g id="shape13-48" v:mID="13" v:groupContext="groupContent" v:layerMember="0">
				<v:textBlock v:margins="rect(1,1,1,1)"/>
				<v:textRect cx="9.00206" cy="246.386" width="24.45" height="11.627" transform="rotate(-90)"/>
				<text x="-256.5" y="11.41" transform="rotate(-90)" class="st4" v:langID="1033"><v:paragraph v:horizAlign="1"/><v:tabList/>R<tspan
							dy="-0.287em" class="st5" v:baseFontSize="8">HOLD</tspan></text>			</g>
		</g>
		<g id="group16-51" transform="translate(625.74,108.116) rotate(90)" v:mID="16" v:groupContext="group" v:layerMember="0">
			<v:custProps>
				<v:cp v:nameU="Label" v:lbl="Label" v:type="0" v:format="@" v:sortKey="" v:invis="false" v:ask="false"
						v:langID="1033" v:val="VT4()"/>
				<v:cp v:nameU="Slider_Position" v:lbl="Slider position (0-1)" v:type="2" v:langID="1033" v:val="VT0(0.5):26"/>
			</v:custProps>
			<v:userDefs>
				<v:ud v:nameU="Form" v:val="VT0(1):5"/>
				<v:ud v:nameU="SubType" v:val="VT0(0):26"/>
				<v:ud v:nameU="visDescription" v:val="VT4(Represents a fixed or variable resistor.)"/>
				<v:ud v:nameU="visVersion" v:val="VT0(12):26"/>
				<v:ud v:nameU="Form" v:prompt="" v:val="VT0(0):5"/>
			</v:userDefs>
			<title>Resistor.16</title>
			<desc>RHOLD</desc>
			<g id="shape17-52" v:mID="17" v:groupContext="shape" v:layerMember="0">
				<title>시트.17</title>
				<v:userDefs>
					<v:ud v:nameU="SubType" v:val="VT0(0):26"/>
					<v:ud v:nameU="Form" v:val="VT0(1):5"/>
					<v:ud v:nameU="Form" v:prompt="" v:val="VT0(0):5"/>
				</v:userDefs>
				<path d="M0 234.24 L18 234.24 L18 227.04 L0 227.04 L0 234.24 Z" class="st1"/>
			</g>
			<g id="shape18-54" v:mID="18" v:groupContext="shape" v:layerMember="0"
					transform="translate(-163.885,73.0247) rotate(-45)">
				<title>시트.18</title>
				<v:userDefs>
					<v:ud v:nameU="SubType" v:val="VT0(0):26"/>
				</v:userDefs>
			</g>
			<g id="shape16-56" v:mID="16" v:groupContext="groupContent" v:layerMember="0">
				<v:textBlock v:margins="rect(1,1,1,1)"/>
				<v:textRect cx="9.00206" cy="214.886" width="24.45" height="11.627" transform="rotate(-90)"/>
				<text x="-225" y="11.41" transform="rotate(-90)" class="st4" v:langID="1033"><v:paragraph v:horizAlign="1"/><v:tabList/>R<tspan
							dy="-0.287em" class="st5" v:baseFontSize="8">HOLD</tspan></text>			</g>
		</g>
		<g id="group19-59" transform="translate(115.868,198.116) rotate(-90)" v:mID="19" v:groupContext="group" v:layerMember="0">
			<v:userDefs>
				<v:ud v:nameU="Form" v:val="VT0(0):26"/>
				<v:ud v:nameU="Type" v:val="VT0(0):26"/>
				<v:ud v:nameU="visDescription" v:val="VT4(Represents a fixed or variable capacitor.)"/>
				<v:ud v:nameU="visVersion" v:val="VT0(12):26"/>
			</v:userDefs>
			<title>Capacitor</title>
			<g id="shape20-60" v:mID="20" v:groupContext="shape" v:layerMember="0"
					transform="translate(173.957,51.4602) rotate(45)">
				<title>시트.20</title>
			</g>
			<g id="shape21-62" v:mID="21" v:groupContext="shape" v:layerMember="0" transform="translate(13.5,2.84217E-14)">
				<title>시트.21</title>
				<path d="M4.5 234.24 L4.5 216.24" class="st2"/>
				<path d="M9 234.24 L9 216.24" class="st2"/>
			</g>
			<g id="shape22-66" v:mID="22" v:groupContext="shape" v:layerMember="0" transform="translate(0,-9)">
				<title>시트.22</title>
				<path d="M0 234.24 L18 234.24" class="st2"/>
				<path d="M22.5 234.24 L36 234.24" class="st2"/>
			</g>
		</g>
		<g id="shape25-70" v:mID="25" v:groupContext="shape" v:layerMember="1" transform="translate(278.104,-81.12)">
			<title>Dynamic connector.25</title>
			<path d="M9 234.24 L9 279.24" class="st2"/>
		</g>
		<g id="shape26-73" v:mID="26" v:groupContext="shape" v:layerMember="1" transform="translate(386.104,-81.12)">
			<title>Dynamic connector.26</title>
			<path d="M9 234.24 L9 279.24" class="st2"/>
		</g>
		<g id="shape23-76" v:mID="23" v:groupContext="shape" v:layerMember="1" transform="translate(345.604,-67.62)">
			<title>Dynamic connector</title>
			<path d="M-4.5 229.74 L-4.5 225.24 L-13.5 225.24 L-13.5 220.74" class="st2"/>
		</g>
		<g id="shape24-79" v:mID="24" v:groupContext="shape" v:layerMember="1" transform="translate(336.604,-69.87)">
			<title>Dynamic connector.24</title>
			<path d="M5.67 227.49 L6.03 227.49 L13.5 227.49 L13.5 222.99" class="st7"/>
		</g>
		<g id="shape31-85" v:mID="31" v:groupContext="shape" v:layerMember="1" transform="translate(323.104,-112.62)">
			<title>Dynamic connector.31</title>
			<path d="M9 238.74 L9 247.74" class="st2"/>
		</g>
		<g id="shape32-88" v:mID="32" v:groupContext="shape" v:layerMember="1" transform="translate(341.104,-112.62)">
			<title>Dynamic connector.32</title>
			<path d="M9 238.74 L9 247.74" class="st2"/>
		</g>
		<g id="shape33-91" v:mID="33" v:groupContext="shape" v:layerMember="0" transform="translate(115.868,234.116) rotate(-90)">
			<title>Equipotentiality</title>
			<v:userDefs>
				<v:ud v:nameU="visVersion" v:val="VT0(12):26"/>
				<v:ud v:nameU="visDescription" v:val="VT4(Represents equipotentiality.)"/>
			</v:userDefs>
			<path d="M9 234.24 L9 216.24 L0 225.24 L9 234.24 Z" class="st9"/>
			<path d="M9 234.24 L9 216.24 L0 225.24 L9 234.24" class="st2"/>
			<path d="M36 225.24 L9 225.24" class="st2"/>
		</g>
		<g id="shape34-95" v:mID="34" v:groupContext="shape" v:layerMember="0" transform="translate(61.868,234.116) rotate(-90)">
			<title>Equipotentiality.34</title>
			<v:userDefs>
				<v:ud v:nameU="visVersion" v:val="VT0(12):26"/>
				<v:ud v:nameU="visDescription" v:val="VT4(Represents equipotentiality.)"/>
			</v:userDefs>
			<path d="M9 234.24 L9 216.24 L0 225.24 L9 234.24 Z" class="st9"/>
			<path d="M9 234.24 L9 216.24 L0 225.24 L9 234.24" class="st2"/>
			<path d="M36 225.24 L9 225.24" class="st2"/>
		</g>
		<g id="shape35-99" v:mID="35" v:groupContext="shape" v:layerMember="0" transform="translate(169.868,234.116) rotate(-90)">
			<title>Equipotentiality.35</title>
			<v:userDefs>
				<v:ud v:nameU="visVersion" v:val="VT0(12):26"/>
				<v:ud v:nameU="visDescription" v:val="VT4(Represents equipotentiality.)"/>
			</v:userDefs>
			<path d="M9 234.24 L9 216.24 L0 225.24 L9 234.24 Z" class="st9"/>
			<path d="M9 234.24 L9 216.24 L0 225.24 L9 234.24" class="st2"/>
			<path d="M36 225.24 L9 225.24" class="st2"/>
		</g>
		<g id="group36-103" transform="translate(57.368,153.116) rotate(-90)" v:mID="36" v:groupContext="group" v:layerMember="0">
			<v:userDefs>
				<v:ud v:nameU="visDescription"
						v:val="VT4(Represents a single-pole, single-throw switch.  Right-click to open and close the switch.)"/>
				<v:ud v:nameU="visVersion" v:val="VT0(12):26"/>
			</v:userDefs>
			<title>SPST</title>
			<g id="shape37-104" v:mID="37" v:groupContext="shape" v:layerMember="0" transform="translate(-1.12885,-3.375)">
				<title>시트.37</title>
				<path d="M18 233.13 A1.12441 1.12441 -180 1 0 20.24 233.13 A1.12441 1.12441 -180 1 0 18 233.13 ZM0.01 233.13 A1.12441
							 1.12441 -180 1 0 2.25 233.13 A1.12441 1.12441 -180 1 0 0.01 233.13 Z" class="st9"/>
				<path d="M18 233.13 A1.12441 1.12441 -180 1 0 20.24 233.13 A1.12441 1.12441 -180 1 0 18 233.13" class="st2"/>
				<path d="M0.01 233.13 A1.12441 1.12441 -180 1 0 2.25 233.13 A1.12441 1.12441 -180 1 0 0.01 233.13" class="st2"/>
				<path d="M2.18 232.7 L16.87 227.49" class="st2"/>
			</g>
			<g id="shape38-109" v:mID="38" v:groupContext="shape" v:layerMember="0" transform="translate(0,9)">
				<title>시트.38</title>
				<rect x="0" y="225.236" width="18" height="9" class="st10"/>
			</g>
		</g>
		<g id="shape39-111" v:mID="39" v:groupContext="shape" v:layerMember="1" transform="translate(278.104,-112.62)">
			<title>Dynamic connector.39</title>
			<path d="M9 238.74 L9 247.74" class="st2"/>
		</g>
		<g id="group40-114" transform="translate(165.368,153.116) rotate(-90)" v:mID="40" v:groupContext="group" v:layerMember="0">
			<v:userDefs>
				<v:ud v:nameU="visDescription"
						v:val="VT4(Represents a single-pole, single-throw switch.  Right-click to open and close the switch.)"/>
				<v:ud v:nameU="visVersion" v:val="VT0(12):26"/>
			</v:userDefs>
			<title>SPST.40</title>
			<g id="shape41-115" v:mID="41" v:groupContext="shape" v:layerMember="0" transform="translate(-1.12885,-3.375)">
				<title>시트.41</title>
				<path d="M18 233.13 A1.12441 1.12441 -180 1 0 20.24 233.13 A1.12441 1.12441 -180 1 0 18 233.13 ZM0.01 233.13 A1.12441
							 1.12441 -180 1 0 2.25 233.13 A1.12441 1.12441 -180 1 0 0.01 233.13 Z" class="st9"/>
				<path d="M18 233.13 A1.12441 1.12441 -180 1 0 20.24 233.13 A1.12441 1.12441 -180 1 0 18 233.13" class="st2"/>
				<path d="M0.01 233.13 A1.12441 1.12441 -180 1 0 2.25 233.13 A1.12441 1.12441 -180 1 0 0.01 233.13" class="st2"/>
				<path d="M2.18 232.7 L16.87 227.49" class="st2"/>
			</g>
			<g id="shape42-120" v:mID="42" v:groupContext="shape" v:layerMember="0" transform="translate(0,9)">
				<title>시트.42</title>
				<rect x="0" y="225.236" width="18" height="9" class="st10"/>
			</g>
		</g>
		<g id="shape43-122" v:mID="43" v:groupContext="shape" v:layerMember="1" transform="translate(386.104,-112.62)">
			<title>Dynamic connector.43</title>
			<path d="M9 238.74 L9 247.74" class="st2"/>
		</g>
		<g id="shape44-125" v:mID="44" v:groupContext="shape" v:layerMember="1" transform="translate(417.604,-162.121)">
			<title>Dynamic connector.44</title>
			<path d="M0 243.23 L-82.5 243.24 A3 3 -180 1 0 -88.5 243.24 L-127.5 243.24 A3 3 -180 0 0 -133.5 243.24 L-148.5 243.24"
					class="st2"/>
		</g>
		<g id="shape45-128" v:mID="45" v:groupContext="shape" v:layerMember="1" transform="translate(386.104,-126.12)">
			<title>Dynamic connector.45</title>
			<path d="M9 234.24 L9 208.76" class="st11"/>
		</g>
		<g id="shape46-134" v:mID="46" v:groupContext="shape" v:layerMember="1" transform="translate(341.104,-126.12)">
			<title>Dynamic connector.46</title>
			<path d="M9 234.24 L9 208.76" class="st11"/>
		</g>
		<g id="shape47-139" v:mID="47" v:groupContext="shape" v:layerMember="1" transform="translate(419.854,-171.118)">
			<title>Dynamic connector.47</title>
			<path d="M-2.25 234.24 L-3.75 234.24 A3 3 -180 0 0 -9.75 234.24 L-15.75 234.24 L-15.75 181.77" class="st11"/>
		</g>
		<g id="shape48-144" v:mID="48" v:groupContext="shape" v:layerMember="1" transform="translate(424.354,-207.122)">
			<title>Dynamic connector.48</title>
			<path d="M-6.75 234.24 L-11.25 234.24 L-11.25 286.71" class="st11"/>
		</g>
		<g id="shape50-149" v:mID="50" v:groupContext="shape" v:layerMember="1" transform="translate(278.104,-126.12)">
			<title>Dynamic connector.50</title>
			<path d="M9 234.24 L9 136.77" class="st11"/>
		</g>
		<g id="shape51-154" v:mID="51" v:groupContext="shape" v:layerMember="1" transform="translate(323.104,-126.12)">
			<title>Dynamic connector.51</title>
			<path d="M9 234.24 L9 136.77" class="st11"/>
		</g>
		<g id="group52-159" transform="translate(102.368,153.116) rotate(-90)" v:mID="52" v:groupContext="group" v:layerMember="0">
			<v:userDefs>
				<v:ud v:nameU="visDescription"
						v:val="VT4(Represents a single-pole, single-throw switch.  Right-click to open and close the switch.)"/>
				<v:ud v:nameU="visVersion" v:val="VT0(12):26"/>
			</v:userDefs>
			<title>SPST.52</title>
			<g id="shape53-160" v:mID="53" v:groupContext="shape" v:layerMember="0" transform="translate(-1.12885,-3.375)">
				<title>시트.53</title>
				<path d="M18 233.13 A1.12441 1.12441 -180 1 0 20.24 233.13 A1.12441 1.12441 -180 1 0 18 233.13 ZM0.01 233.13 A1.12441
							 1.12441 -180 1 0 2.25 233.13 A1.12441 1.12441 -180 1 0 0.01 233.13 Z" class="st9"/>
				<path d="M18 233.13 A1.12441 1.12441 -180 1 0 20.24 233.13 A1.12441 1.12441 -180 1 0 18 233.13" class="st2"/>
				<path d="M0.01 233.13 A1.12441 1.12441 -180 1 0 2.25 233.13 A1.12441 1.12441 -180 1 0 0.01 233.13" class="st2"/>
				<path d="M2.18 232.7 L16.87 227.49" class="st2"/>
			</g>
			<g id="shape54-165" v:mID="54" v:groupContext="shape" v:layerMember="0" transform="translate(0,9)">
				<title>시트.54</title>
				<rect x="0" y="225.236" width="18" height="9" class="st10"/>
			</g>
		</g>
		<g id="group55-167" transform="translate(120.368,153.116) rotate(-90)" v:mID="55" v:groupContext="group" v:layerMember="0">
			<v:userDefs>
				<v:ud v:nameU="visDescription"
						v:val="VT4(Represents a single-pole, single-throw switch.  Right-click to open and close the switch.)"/>
				<v:ud v:nameU="visVersion" v:val="VT0(12):26"/>
			</v:userDefs>
			<title>SPST.55</title>
			<g id="shape56-168" v:mID="56" v:groupContext="shape" v:layerMember="0" transform="translate(-1.12885,-3.375)">
				<title>시트.56</title>
				<path d="M18 233.13 A1.12441 1.12441 -180 1 0 20.24 233.13 A1.12441 1.12441 -180 1 0 18 233.13 ZM0.01 233.13 A1.12441
							 1.12441 -180 1 0 2.25 233.13 A1.12441 1.12441 -180 1 0 0.01 233.13 Z" class="st9"/>
				<path d="M18 233.13 A1.12441 1.12441 -180 1 0 20.24 233.13 A1.12441 1.12441 -180 1 0 18 233.13" class="st2"/>
				<path d="M0.01 233.13 A1.12441 1.12441 -180 1 0 2.25 233.13 A1.12441 1.12441 -180 1 0 0.01 233.13" class="st2"/>
				<path d="M2.18 232.7 L16.87 227.49" class="st2"/>
			</g>
			<g id="shape57-173" v:mID="57" v:groupContext="shape" v:layerMember="0" transform="translate(0,9)">
				<title>시트.57</title>
				<rect x="0" y="225.236" width="18" height="9" class="st10"/>
			</g>
		</g>
		<g id="shape27-175" v:mID="27" v:groupContext="shape" transform="translate(158.854,-171.12)">
			<title>시트.27</title>
			<desc>Line</desc>
			<v:textBlock v:margins="rect(4,4,4,4)"/>
			<v:textRect cx="38.25" cy="216.236" width="76.51" height="36"/>
			<path d="M4.5 216.24 A2.25 18 0 1 1 0 216.24 A2.25 18 0 1 1 4.5 216.24 Z" class="st12"/>
			<path d="M2.25 198.24 L74.25 198.24 A18 2.25 90 0 1 74.25 234.24 L2.25 234.24" class="st13"/>
			<path d="M4.5 216.24 A2.25 18 0 1 1 0 216.24 A2.25 18 0 1 1 4.5 216.24" class="st13"/>
			<text x="30.69" y="218.64" class="st14" v:langID="1033"><v:paragraph v:horizAlign="1"/><v:tabList/>Line</text>		</g>
		<g id="shape29-180" v:mID="29" v:groupContext="shape" v:layerMember="1" transform="translate(269.104,-153.12)">
			<title>Dynamic connector.29</title>
			<path d="M0 234.24 L0 207.2 L-34.05 207.2" class="st2"/>
		</g>
		<g id="shape30-183" v:mID="30" v:groupContext="shape" v:layerMember="1" transform="translate(417.604,-216.119)">
			<title>Dynamic connector.30</title>
			<path d="M0 225.24 L-148.5 225.23" class="st2"/>
		</g>
		<g id="shape28-186" v:mID="28" v:groupContext="shape" v:layerMember="1" transform="translate(269.104,-225.118)">
			<title>Dynamic connector.28</title>
			<path d="M0 234.24 L0 261.2 L-34.05 261.2" class="st2"/>
		</g>
		<g id="group49-189" transform="translate(107.104,-158.52)" v:mID="49" v:groupContext="group" v:layerMember="0">
			<v:custProps>
				<v:cp v:nameU="Label" v:lbl="Label" v:type="0" v:format="@" v:sortKey="" v:invis="false" v:ask="false"
						v:langID="1033" v:val="VT4()"/>
				<v:cp v:nameU="Slider_Position" v:lbl="Slider position (0-1)" v:type="2" v:langID="1033" v:val="VT0(0.5):26"/>
			</v:custProps>
			<v:userDefs>
				<v:ud v:nameU="Form" v:val="VT0(1):5"/>
				<v:ud v:nameU="SubType" v:val="VT0(0):26"/>
				<v:ud v:nameU="visDescription" v:val="VT4(Represents a fixed or variable resistor.)"/>
				<v:ud v:nameU="visVersion" v:val="VT0(12):26"/>
				<v:ud v:nameU="Form" v:prompt="" v:val="VT0(0):5"/>
			</v:userDefs>
			<title>Resistor.49</title>
			<desc>RSE_TX</desc>
			<g id="shape58-190" v:mID="58" v:groupContext="shape" v:layerMember="0">
				<title>시트.58</title>
				<v:userDefs>
					<v:ud v:nameU="SubType" v:val="VT0(0):26"/>
					<v:ud v:nameU="Form" v:val="VT0(1):5"/>
					<v:ud v:nameU="Form" v:prompt="" v:val="VT0(0):5"/>
				</v:userDefs>
				<path d="M0 234.24 L18 234.24 L18 227.04 L0 227.04 L0 234.24 Z" class="st1"/>
			</g>
			<g id="shape59-192" v:mID="59" v:groupContext="shape" v:layerMember="0"
					transform="translate(-163.885,73.0247) rotate(-45)">
				<title>시트.59</title>
				<v:userDefs>
					<v:ud v:nameU="SubType" v:val="VT0(0):26"/>
				</v:userDefs>
			</g>
			<g id="shape49-194" v:mID="49" v:groupContext="groupContent" v:layerMember="0">
				<v:textBlock v:margins="rect(1,1,1,1)"/>
				<v:textRect cx="9" cy="240.049" width="26.48" height="11.627"/>
				<text x="-2.12" y="242.46" class="st4" v:langID="1033"><v:paragraph v:horizAlign="1"/><v:tabList/>R<tspan
							dy="-0.287em" class="st5" v:baseFontSize="8">SE_TX</tspan></text>			</g>
		</g>
		<g id="group60-197" transform="translate(107.104,-212.52)" v:mID="60" v:groupContext="group" v:layerMember="0">
			<v:custProps>
				<v:cp v:nameU="Label" v:lbl="Label" v:type="0" v:format="@" v:sortKey="" v:invis="false" v:ask="false"
						v:langID="1033" v:val="VT4()"/>
				<v:cp v:nameU="Slider_Position" v:lbl="Slider position (0-1)" v:type="2" v:langID="1033" v:val="VT0(0.5):26"/>
			</v:custProps>
			<v:userDefs>
				<v:ud v:nameU="Form" v:val="VT0(1):5"/>
				<v:ud v:nameU="SubType" v:val="VT0(0):26"/>
				<v:ud v:nameU="visDescription" v:val="VT4(Represents a fixed or variable resistor.)"/>
				<v:ud v:nameU="visVersion" v:val="VT0(12):26"/>
				<v:ud v:nameU="Form" v:prompt="" v:val="VT0(0):5"/>
			</v:userDefs>
			<title>Resistor.60</title>
			<desc>RSE_TX</desc>
			<g id="shape61-198" v:mID="61" v:groupContext="shape" v:layerMember="0">
				<title>시트.61</title>
				<v:userDefs>
					<v:ud v:nameU="SubType" v:val="VT0(0):26"/>
					<v:ud v:nameU="Form" v:val="VT0(1):5"/>
					<v:ud v:nameU="Form" v:prompt="" v:val="VT0(0):5"/>
				</v:userDefs>
				<path d="M0 234.24 L18 234.24 L18 227.04 L0 227.04 L0 234.24 Z" class="st1"/>
			</g>
			<g id="shape62-200" v:mID="62" v:groupContext="shape" v:layerMember="0"
					transform="translate(-163.885,73.0247) rotate(-45)">
				<title>시트.62</title>
				<v:userDefs>
					<v:ud v:nameU="SubType" v:val="VT0(0):26"/>
				</v:userDefs>
			</g>
			<g id="shape60-202" v:mID="60" v:groupContext="groupContent" v:layerMember="0">
				<v:textBlock v:margins="rect(1,1,1,1)"/>
				<v:textRect cx="9" cy="219.386" width="26.48" height="11.627"/>
				<text x="-2.12" y="221.79" class="st4" v:langID="1033"><v:paragraph v:horizAlign="1"/><v:tabList/>R<tspan
							dy="-0.287em" class="st5" v:baseFontSize="8">SE_TX</tspan></text>			</g>
		</g>
		<g id="group63-205" transform="translate(80.1039,-211.62) scale(-1,1)" v:mID="63" v:groupContext="group" v:layerMember="0">
			<v:custProps>
				<v:cp v:nameU="SubType" v:lbl="Switch position" v:type="1" v:format="Center;Up;Down" v:sortKey="" v:invis="false"
						v:ask="false" v:langID="1033" v:val="VT4(Center)"/>
			</v:custProps>
			<v:userDefs>
				<v:ud v:nameU="visDescription"
						v:val="VT4(Represents a single-pole, double-throw switch.  Right-click for up, down, and center positions.)"/>
				<v:ud v:nameU="visVersion" v:val="VT0(12):26"/>
			</v:userDefs>
			<title>SPDT</title>
			<g id="shape64-206" v:mID="64" v:groupContext="shape" v:layerMember="0">
				<title>시트.64</title>
				<path d="M14.63 229.74 L0 229.74" class="st2"/>
			</g>
			<g id="shape65-209" v:mID="65" v:groupContext="shape" v:layerMember="0" transform="translate(-1.1258,2.84217E-14)">
				<title>시트.65</title>
				<path d="M0 229.74 A1.125 1.125 -180 0 0 2.25 229.74 A1.125 1.125 -180 0 0 0 229.74 ZM18 225.24 A1.125 1.125 -180
							 1 0 20.25 225.24 A1.125 1.125 -180 1 0 18 225.24 ZM18 234.24 A1.125 1.125 -180 1 0 20.25 234.24 A1.125
							 1.125 -180 1 0 18 234.24 Z" class="st1"/>
			</g>
			<g id="shape66-211" v:mID="66" v:groupContext="shape" v:layerMember="0" transform="translate(0,9)">
				<title>시트.66</title>
				<rect x="0" y="225.236" width="18" height="9" class="st10"/>
			</g>
		</g>
		<g id="group67-213" transform="translate(80.1039,-157.62) scale(-1,1)" v:mID="67" v:groupContext="group" v:layerMember="0">
			<v:custProps>
				<v:cp v:nameU="SubType" v:lbl="Switch position" v:type="1" v:format="Center;Up;Down" v:sortKey="" v:invis="false"
						v:ask="false" v:langID="1033" v:val="VT4(Center)"/>
			</v:custProps>
			<v:userDefs>
				<v:ud v:nameU="visDescription"
						v:val="VT4(Represents a single-pole, double-throw switch.  Right-click for up, down, and center positions.)"/>
				<v:ud v:nameU="visVersion" v:val="VT0(12):26"/>
			</v:userDefs>
			<title>SPDT.67</title>
			<g id="shape68-214" v:mID="68" v:groupContext="shape" v:layerMember="0">
				<title>시트.68</title>
				<path d="M14.63 229.74 L0 229.74" class="st2"/>
			</g>
			<g id="shape69-217" v:mID="69" v:groupContext="shape" v:layerMember="0" transform="translate(-1.1258,2.84217E-14)">
				<title>시트.69</title>
				<path d="M0 229.74 A1.125 1.125 -180 0 0 2.25 229.74 A1.125 1.125 -180 0 0 0 229.74 ZM18 225.24 A1.125 1.125 -180
							 1 0 20.25 225.24 A1.125 1.125 -180 1 0 18 225.24 ZM18 234.24 A1.125 1.125 -180 1 0 20.25 234.24 A1.125
							 1.125 -180 1 0 18 234.24 Z" class="st1"/>
			</g>
			<g id="shape70-219" v:mID="70" v:groupContext="shape" v:layerMember="0" transform="translate(0,9)">
				<title>시트.70</title>
				<rect x="0" y="225.236" width="18" height="9" class="st10"/>
			</g>
		</g>
		<g id="shape71-221" v:mID="71" v:groupContext="shape" v:layerMember="0" transform="translate(35.1039,270.352) rotate(180)">
			<title>Ideal source</title>
			<desc>VLD</desc>
			<v:userDefs>
				<v:ud v:nameU="Type" v:val="VT0(0):26"/>
				<v:ud v:nameU="visVersion" v:val="VT0(12):26"/>
				<v:ud v:nameU="visDescription" v:val="VT4(Represents an ideal current or voltage source.)"/>
			</v:userDefs>
			<v:textBlock v:margins="rect(1,1,1,1)"/>
			<v:textRect cx="27" cy="225.236" width="16.21" height="11.627" transform="rotate(180)"/>
			<path d="M0 225.24 A9 9 0 0 1 18 225.24 A9 9 0 1 1 0 225.24 Z" class="st9"/>
			<path d="M0 225.24 A9 9 0 0 1 18 225.24 A9 9 0 1 1 0 225.24" class="st2"/>
			<path d="M9 234.24 L9 216.24" class="st2"/>
			<text x="-32.99" y="-222.83" transform="rotate(180)" class="st4" v:langID="1033"><v:paragraph v:horizAlign="1"/><v:tabList/>V<tspan
						dy="-0.287em" class="st5" v:baseFontSize="8">LD</tspan></text>		</g>
		<g id="shape72-227" v:mID="72" v:groupContext="shape" v:layerMember="1" transform="translate(62.1039,-220.62)">
			<title>Dynamic connector.72</title>
			<path d="M0 234.24 L-36 234.24 L-36 256.74" class="st2"/>
		</g>
		<g id="shape74-230" v:mID="74" v:groupContext="shape" v:layerMember="1" transform="translate(62.1039,-157.62)">
			<title>Dynamic connector.74</title>
			<path d="M0 234.24 L-18 234.24 L-18 172.77" class="st11"/>
		</g>
		<g id="shape75-235" v:mID="75" v:groupContext="shape" v:layerMember="1" transform="translate(66.6039,-211.62)">
			<title>Dynamic connector.75</title>
			<path d="M-4.5 234.24 L-13.5 234.24 L-13.5 277.71" class="st11"/>
		</g>
		<g id="shape76-240" v:mID="76" v:groupContext="shape" v:layerMember="1" transform="translate(80.1039,-207.12)">
			<title>Dynamic connector.76</title>
			<path d="M0 225.24 L27 225.24" class="st2"/>
		</g>
		<g id="shape77-243" v:mID="77" v:groupContext="shape" v:layerMember="1" transform="translate(80.1039,-153.12)">
			<title>Dynamic connector.77</title>
			<path d="M0 225.24 L27 225.24" class="st2"/>
		</g>
		<g id="shape78-246" v:mID="78" v:groupContext="shape" v:layerMember="1" transform="translate(120.604,-162.12)">
			<title>Dynamic connector.78</title>
			<path d="M4.5 234.24 L13.5 234.24 L13.5 216.24" class="st2"/>
		</g>
		<g id="shape79-249" v:mID="79" v:groupContext="shape" v:layerMember="1" transform="translate(134.104,-189.119)">
			<title>Dynamic connector.79</title>
			<path d="M0 243.23 L27 243.24" class="st2"/>
		</g>
		<g id="shape80-252" v:mID="80" v:groupContext="shape" v:layerMember="1" transform="translate(120.604,-216.12)">
			<title>Dynamic connector.80</title>
			<path d="M4.5 234.24 L13.5 234.24 L13.5 252.24" class="st2"/>
		</g>
		<g id="shape81-255" v:mID="81" v:groupContext="shape" v:layerMember="1" transform="translate(134.104,-207.119)">
			<title>Dynamic connector.81</title>
			<path d="M0 243.23 L27 243.24" class="st2"/>
		</g>
		<g id="shape82-258" v:mID="82" v:groupContext="shape" v:layerMember="0" transform="translate(-199.132,117.118) rotate(-90)">
			<title>Equipotentiality.82</title>
			<v:userDefs>
				<v:ud v:nameU="visVersion" v:val="VT0(12):26"/>
				<v:ud v:nameU="visDescription" v:val="VT4(Represents equipotentiality.)"/>
			</v:userDefs>
			<path d="M9 234.24 L9 216.24 L0 225.24 L9 234.24 Z" class="st9"/>
			<path d="M9 234.24 L9 216.24 L0 225.24 L9 234.24" class="st2"/>
			<path d="M36 225.24 L9 225.24" class="st2"/>
		</g>
		<g id="shape83-262" v:mID="83" v:groupContext="shape" v:layerMember="1" transform="translate(17.1039,-153.118)">
			<title>Dynamic connector.83</title>
			<path d="M9 234.24 L9 207.23" class="st2"/>
		</g>
		<g id="shape73-265" v:mID="73" v:groupContext="shape" v:layerMember="1" transform="translate(62.1039,-175.619)">
			<title>Dynamic connector.73</title>
			<path d="M0 243.23 L-15 243.24 A3 3 -180 1 0 -21 243.24 L-34.47 243.24" class="st11"/>
		</g>
	</g>
</svg>
